<mxfile host="app.diagrams.net" modified="2023-12-04T01:13:01.169Z" agent="Mozilla/5.0 (Macintosh; Intel Mac OS X 10_15_7) AppleWebKit/537.36 (KHTML, like Gecko) Chrome/119.0.0.0 Safari/537.36" version="22.1.5" etag="9feMZA-Gp22mI-8tdnLU" type="github">
  <diagram name="第 1 页" id="vBFa7pvt46Uq_qwRrnBu">
    <mxGraphModel>
      <root>
        <mxCell id="0" />
        <mxCell id="1" parent="0" />
      </root>
    </mxGraphModel>
  </diagram>
</mxfile>
